<?xml version="1.0" standalone="no"?>
<!DOCTYPE svg PUBLIC "-//W3C//DTD SVG 1.1//EN" "http://www.w3.org/Graphics/SVG/1.1/DTD/svg11.dtd" >
<svg xmlns="http://www.w3.org/2000/svg">
<metadata></metadata>
<defs>
<font id="pokemon_versionwide_bold" horiz-adv-x="1792" >
<font-face units-per-em="2048" ascent="1638" descent="-410" />
<missing-glyph horiz-adv-x="768" />
<glyph horiz-adv-x="2048" />
<glyph horiz-adv-x="2048" />
<glyph unicode="&#xd;" horiz-adv-x="2048" />
<glyph unicode=" "  horiz-adv-x="768" />
<glyph unicode="&#x09;" horiz-adv-x="768" />
<glyph unicode="&#xa0;" horiz-adv-x="768" />
<glyph unicode="," horiz-adv-x="1152" d="M192 192l192 192h256l128 -128v-384l-128 -128h-256l-128 128h256v128h-128z" />
<glyph unicode="." horiz-adv-x="1152" d="M192 192l192 192h384l192 -192l-192 -192h-384z" />
<glyph unicode="A" d="M0 0l704 1408h256l704 -1408h-448l-128 256h-512l-128 -256h-448zM640 640h384l-192 384z" />
<glyph unicode="B" d="M0 0v1408h1280l384 -384v-128l-192 -192l192 -192v-128l-384 -384h-1280zM384 384h768v128h-768v-128zM384 896h768v128h-768v-128z" />
<glyph unicode="C" d="M0 384v640l384 384h1280v-384h-1280v-640h1280v-384h-1280z" />
<glyph unicode="D" d="M0 0v1408h1280l384 -384v-640l-384 -384h-1280zM384 384h896v640h-896v-640z" />
<glyph unicode="E" d="M0 384v640l384 384h1280l-192 -384h-1088v-128h896v-384h-896v-128h1088l192 -384h-1280z" />
<glyph unicode="F" d="M0 0v1024l384 384h1280l-192 -384h-1088v-128h896v-384h-896v-512h-384z" />
<glyph unicode="G" d="M0 384v640l384 384h1152l-192 -384h-960v-640h896v128h-320l-192 384h896v-512l-384 -384h-896z" />
<glyph unicode="H" d="M0 0v1408h384v-512h896v512h384v-1408h-384v512h-896v-512h-384z" />
<glyph unicode="I" horiz-adv-x="1280" d="M0 384h384v640h-384v384h1152v-384h-384v-640h384v-384h-768z" />
<glyph unicode="J" d="M0 384h1280v640h-576l-192 384h768l384 -384v-640l-384 -384h-896z" />
<glyph unicode="K" d="M0 0v1408h384v-512h256l512 512h512l-704 -704l704 -704h-512l-512 512h-256v-512h-384z" />
<glyph unicode="L" d="M0 384v1024h384v-1024h1280v-384h-1280z" />
<glyph unicode="M" d="M0 0v1408h384l448 -448l448 448h384v-1408h-384v896l-384 -384h-128l-384 384v-896h-384z" />
<glyph unicode="N" d="M0 0v1408h384l896 -896v896h384v-1408h-384l-896 896v-896h-384z" />
<glyph unicode="O" d="M0 384v640l384 384h896l384 -384v-640l-384 -384h-896zM384 384h896v640h-896v-640z" />
<glyph unicode="P" horiz-adv-x="1664" d="M0 0v1408h1152l384 -384v-128l-384 -384h-768v-512h-384zM384 896h640v128h-640v-128z" />
<glyph unicode="Q" d="M0 384v640l384 384h896l384 -384v-512l-128 -128l128 -128v-256h-256l-128 128l-128 -128h-768zM384 384h640l-128 128v256h256l128 -128v384h-896v-640z" />
<glyph unicode="R" d="M0 0v1408h1152l384 -384v-128l-384 -384l512 -512h-512l-512 512h-256v-512h-384zM384 896h640v128h-640v-128z" />
<glyph unicode="S" d="M0 0l192 384h1088v128h-1280v512l384 384h1280l-192 -384h-1088v-128h1280v-512l-384 -384h-1280z" />
<glyph unicode="T" d="M0 1024v384h1664v-384h-640v-1024h-384v1024h-640z" />
<glyph unicode="U" d="M0 384v1024h384v-1024h896v1024h384v-1024l-384 -384h-896z" />
<glyph unicode="V" horiz-adv-x="2176" d="M0 1408h448l448 -896h256l448 896h448l-704 -1408h-640z" />
<glyph unicode="W" horiz-adv-x="2944" d="M0 1408h448l384 -768l384 768h384l384 -768l384 768h448l-704 -1408h-256l-448 896l-448 -896h-256z" />
<glyph unicode="X" d="M0 0v128l576 576l-576 576v128h384l448 -448l448 448h384v-128l-576 -576l576 -576v-128h-384l-448 448l-448 -448h-384z" />
<glyph unicode="Y" d="M0 1280v128h384l448 -448l448 448h384v-128l-640 -640v-640h-384v640z" />
<glyph unicode="Z" d="M0 0v448l1152 576h-1152v384h1664v-448l-1152 -576h1152v-384h-1664z" />
<glyph unicode="a" d="M0 0l704 1408h256l704 -1408h-448l-128 256h-512l-128 -256h-448zM640 640h384l-192 384z" />
<glyph unicode="b" d="M0 0v1408h1280l384 -384v-128l-192 -192l192 -192v-128l-384 -384h-1280zM384 384h768v128h-768v-128zM384 896h768v128h-768v-128z" />
<glyph unicode="c" d="M0 384v640l384 384h1280v-384h-1280v-640h1280v-384h-1280z" />
<glyph unicode="d" d="M0 0v1408h1280l384 -384v-640l-384 -384h-1280zM384 384h896v640h-896v-640z" />
<glyph unicode="e" d="M0 384v640l384 384h1280l-192 -384h-1088v-128h896v-384h-896v-128h1088l192 -384h-1280z" />
<glyph unicode="f" d="M0 0v1024l384 384h1280l-192 -384h-1088v-128h896v-384h-896v-512h-384z" />
<glyph unicode="g" d="M0 384v640l384 384h1152l-192 -384h-960v-640h896v128h-320l-192 384h896v-512l-384 -384h-896z" />
<glyph unicode="h" d="M0 0v1408h384v-512h896v512h384v-1408h-384v512h-896v-512h-384z" />
<glyph unicode="i" horiz-adv-x="1280" d="M0 384h384v640h-384v384h1152v-384h-384v-640h384v-384h-768z" />
<glyph unicode="j" d="M0 384h1280v640h-576l-192 384h768l384 -384v-640l-384 -384h-896z" />
<glyph unicode="k" d="M0 0v1408h384v-512h256l512 512h512l-704 -704l704 -704h-512l-512 512h-256v-512h-384z" />
<glyph unicode="l" d="M0 384v1024h384v-1024h1280v-384h-1280z" />
<glyph unicode="m" d="M0 0v1408h384l448 -448l448 448h384v-1408h-384v896l-384 -384h-128l-384 384v-896h-384z" />
<glyph unicode="n" d="M0 0v1408h384l896 -896v896h384v-1408h-384l-896 896v-896h-384z" />
<glyph unicode="o" d="M0 384v640l384 384h896l384 -384v-640l-384 -384h-896zM384 384h896v640h-896v-640z" />
<glyph unicode="p" horiz-adv-x="1664" d="M0 0v1408h1152l384 -384v-128l-384 -384h-768v-512h-384zM384 896h640v128h-640v-128z" />
<glyph unicode="q" d="M0 384v640l384 384h896l384 -384v-512l-128 -128l128 -128v-256h-256l-128 128l-128 -128h-768zM384 384h640l-128 128v256h256l128 -128v384h-896v-640z" />
<glyph unicode="r" d="M0 0v1408h1152l384 -384v-128l-384 -384l512 -512h-512l-512 512h-256v-512h-384zM384 896h640v128h-640v-128z" />
<glyph unicode="s" d="M0 0l192 384h1088v128h-1280v512l384 384h1280l-192 -384h-1088v-128h1280v-512l-384 -384h-1280z" />
<glyph unicode="t" d="M0 1024v384h1664v-384h-640v-1024h-384v1024h-640z" />
<glyph unicode="u" d="M0 384v1024h384v-1024h896v1024h384v-1024l-384 -384h-896z" />
<glyph unicode="v" horiz-adv-x="2176" d="M0 1408h448l448 -896h256l448 896h448l-704 -1408h-640z" />
<glyph unicode="w" horiz-adv-x="2944" d="M0 1408h448l384 -768l384 768h384l384 -768l384 768h448l-704 -1408h-256l-448 896l-448 -896h-256z" />
<glyph unicode="x" d="M0 0v128l576 576l-576 576v128h384l448 -448l448 448h384v-128l-576 -576l576 -576v-128h-384l-448 448l-448 -448h-384z" />
<glyph unicode="y" d="M0 1280v128h384l448 -448l448 448h384v-128l-640 -640v-640h-384v640z" />
<glyph unicode="z" d="M0 0v448l1152 576h-1152v384h1664v-448l-1152 -576h1152v-384h-1664z" />
<glyph unicode="&#xb4;" horiz-adv-x="1280" d="M640 1472v256l512 256v-256z" />
<glyph unicode="&#x2000;" horiz-adv-x="992" />
<glyph unicode="&#x2001;" horiz-adv-x="1984" />
<glyph unicode="&#x2002;" horiz-adv-x="992" />
<glyph unicode="&#x2003;" horiz-adv-x="1984" />
<glyph unicode="&#x2004;" horiz-adv-x="661" />
<glyph unicode="&#x2005;" horiz-adv-x="496" />
<glyph unicode="&#x2006;" horiz-adv-x="330" />
<glyph unicode="&#x2007;" horiz-adv-x="330" />
<glyph unicode="&#x2008;" horiz-adv-x="248" />
<glyph unicode="&#x2009;" horiz-adv-x="396" />
<glyph unicode="&#x200a;" horiz-adv-x="110" />
<glyph unicode="&#x202f;" horiz-adv-x="396" />
<glyph unicode="&#x205f;" horiz-adv-x="496" />
<glyph unicode="&#xe000;" horiz-adv-x="1410" d="M0 0v1410h1410v-1410h-1410z" />
</font>
</defs>
</svg>
